<svg width="225" height="225" viewBox="0 0 225 225" fill="none" xmlns="http://www.w3.org/2000/svg">
<path fill-rule="evenodd" clip-rule="evenodd" d="M225 125L169.838 125C169.839 125.054 169.839 125.108 169.839 125.161C169.839 149.836 149.836 169.839 125.161 169.839C125.108 169.839 125.054 169.839 125 169.838V225C125.054 225 125.108 225 125.161 225C180.301 225 225 180.301 225 125.161C225 125.108 225 125.054 225 125Z" fill="white"/>
<path fill-rule="evenodd" clip-rule="evenodd" d="M100 0C44.7715 0 0 44.7715 0 100C0 155.228 44.7715 200 100 200C155.228 200 200 155.228 200 100C200 44.7715 155.228 0 100 0ZM100 55.2504C75.2855 55.2504 55.2504 75.2855 55.2504 100C55.2504 124.715 75.2855 144.75 100 144.75C124.715 144.75 144.75 124.715 144.75 100C144.75 75.2855 124.715 55.2504 100 55.2504ZM200 99.8385H144.749C144.749 99.8923 144.75 99.9461 144.75 100C144.75 124.715 124.715 144.75 100 144.75C99.9461 144.75 99.8923 144.749 99.8385 144.749V200C99.8923 200 99.9461 200 100 200C155.228 200 200 155.228 200 100C200 99.9461 200 99.8923 200 99.8385Z" fill="white"/>
</svg>
